<svg viewBox="0 0 49.91 50" xmlns="http://www.w3.org/2000/svg"><path d="m8.98 8.54c.15-.14.32-.25.5-.31.19-.07.38-.1.57-.09.2 0 .38.05.57.12.18.08.34.18.48.33.15.15.26.32.33.51s.11.37.11.57-.04.38-.11.57c-.08.19-.19.35-.34.5-.15.14-.31.25-.5.32s-.37.1-.56.1-.38-.04-.56-.12c-.19-.08-.35-.19-.5-.34s-.26-.32-.33-.51-.11-.37-.11-.57c0-.19.04-.38.12-.57s.19-.36.34-.5z" fill="#2c6d91"/><g fill="#ff791f"><path d="m15.59 1.81 2.98 6.64-1.73.77-2.98-6.64z"/><path d="m20.37 7.3 1.22-7.29h1.87s1.47 3.87 1.47 3.87l1.44-3.88h1.87s1.25 7.27 1.25 7.27h-1.88s-.64-4.18-.64-4.18l-1.71 4.19h-.75s-1.64-4.18-1.64-4.18l-.62 4.19h-1.88z"/><path d="m35.97 2.54-2.96 6.65-1.73-.77 2.96-6.65z"/><path d="m35.23 10.12 5.25-5.04 1.31 1.36-.79 5.6 3.21-3.08 1.3 1.36-5.25 5.04-1.3-1.36.79-5.6-3.21 3.08z"/><path d="m43.63 21.38-.7-2.61-1.33-.09-.52-1.95 7.75.8.53 2-6.32 4.56-.52-1.95 1.11-.75zm1.26-.86 2.12-1.45-2.56-.2.44 1.64z"/></g><path d="m49.72 28.41-7.24-.72.19-1.88 7.24.72z" fill="#98cff4"/><path d="m46.17 34.86-5.24-2.19.73-1.75 5.24 2.19.6-1.43 1.48.62-1.93 4.61-1.48-.62z" fill="#98cff4"/><path d="m41.1 41.27c-.15.15-.31.25-.5.32s-.38.1-.57.09-.38-.04-.57-.12c-.18-.07-.34-.18-.48-.32-.15-.15-.26-.32-.34-.5s-.11-.37-.12-.57c0-.19.03-.38.11-.57s.19-.35.34-.5.31-.25.5-.32c.18-.07.37-.1.56-.1s.38.04.57.11.35.19.5.34.26.32.34.5.11.37.11.57c0 .19-.03.38-.11.57s-.19.36-.34.51z" fill="#2c6d91"/><path d="m34.54 48.08-3.04-6.61 1.72-.79 3.04 6.61z" fill="#ff791f"/><path d="m29.73 42.63-1.15 7.29-1.87.02-1.5-3.86-1.4 3.9-1.87.02-1.32-7.26 1.88-.02.68 4.18 1.67-4.21h.75s1.68 4.16 1.68 4.16l.58-4.2 1.88-.02z" fill="#ff791f"/><path d="m14.16 47.53 2.9-6.68 1.74.75-2.9 6.68z" fill="#ff791f"/><path d="m14.84 39.95-5.2 5.09-1.32-1.35.74-5.61-3.18 3.11-1.32-1.35 5.2-5.09 1.32 1.35-.74 5.61 3.18-3.11z" fill="#ff791f"/><path d="m6.33 28.77.72 2.6 1.34.08.54 1.94-7.75-.72-.55-1.99 6.27-4.62.54 1.94-1.1.76zm-1.25.87-2.11 1.47 2.56.17z" fill="#ff791f"/><path d="m.17 21.79 7.25.65-.17 1.88-7.25-.65z" fill="#98cff4"/><path d="m3.65 15.32 5.26 2.13-.71 1.75-5.26-2.13-.58 1.44-1.49-.6 1.88-4.63 1.48.6z" fill="#98cff4"/></svg>